<?xml version="1.0" encoding="UTF-8" standalone="no"?>
<!-- Created with Inkscape (http://www.inkscape.org/) -->

<svg
   xmlns:dc="http://purl.org/dc/elements/1.1/"
   xmlns:cc="http://creativecommons.org/ns#"
   xmlns:rdf="http://www.w3.org/1999/02/22-rdf-syntax-ns#"
   xmlns:svg="http://www.w3.org/2000/svg"
   xmlns="http://www.w3.org/2000/svg"
   xmlns:sodipodi="http://sodipodi.sourceforge.net/DTD/sodipodi-0.dtd"
   xmlns:inkscape="http://www.inkscape.org/namespaces/inkscape"
   width="64mm"
   height="64mm"
   viewBox="0 0 226.77165 226.77165"
   id="svg2"
   version="1.1"
   inkscape:version="0.91 r13725"
   sodipodi:docname="logo.svg"
   inkscape:export-filename="/home/kivutar/Jeux/love/libretro-store/assets/logo.png"
   inkscape:export-xdpi="19.84375"
   inkscape:export-ydpi="19.84375">
  <defs
     id="defs4" />
  <sodipodi:namedview
     id="base"
     pagecolor="#ffffff"
     bordercolor="#666666"
     borderopacity="1.0"
     inkscape:pageopacity="0.0"
     inkscape:pageshadow="2"
     inkscape:zoom="1.979899"
     inkscape:cx="57.700345"
     inkscape:cy="116.98103"
     inkscape:document-units="px"
     inkscape:current-layer="layer1"
     showgrid="true"
     showguides="false"
     inkscape:window-width="1440"
     inkscape:window-height="836"
     inkscape:window-x="0"
     inkscape:window-y="27"
     inkscape:window-maximized="1">
    <inkscape:grid
       type="xygrid"
       id="grid4684"
       empspacing="4"
       spacingx="4"
       spacingy="4" />
  </sodipodi:namedview>
  <metadata
     id="metadata7">
    <rdf:RDF>
      <cc:Work
         rdf:about="">
        <dc:format>image/svg+xml</dc:format>
        <dc:type
           rdf:resource="http://purl.org/dc/dcmitype/StillImage" />
        <dc:title></dc:title>
      </cc:Work>
    </rdf:RDF>
  </metadata>
  <g
     inkscape:label="Calque 1"
     inkscape:groupmode="layer"
     id="layer1"
     transform="translate(0,-825.59055)">
    <path
       style="opacity:1;fill:none;fill-opacity:1;stroke:#ffffff;stroke-width:4.14763737;stroke-linecap:round;stroke-linejoin:round;stroke-miterlimit:4;stroke-dasharray:none;stroke-opacity:1"
       id="path4747"
       sodipodi:type="arc"
       sodipodi:cx="112"
       sodipodi:cy="910.36218"
       sodipodi:rx="38.243435"
       sodipodi:ry="56.426182"
       sodipodi:start="2.9885036"
       sodipodi:end="6.2199758"
       d="m 74.203832,918.96671 a 38.243435,56.426182 0 0 1 14.751501,-53.63599 38.243435,56.426182 0 0 1 39.002167,-6.2479 38.243435,56.426182 0 0 1 22.20956,47.71507 L 112,910.36218 Z" />
    <path
       style="opacity:1;fill:#ffffff;fill-opacity:1;stroke:none;stroke-width:5;stroke-linecap:round;stroke-linejoin:round;stroke-miterlimit:4;stroke-dasharray:none;stroke-opacity:1"
       d="M 40,76.771484 48.585938,146.96875 40,204.77148 l 144,0 -7.07031,-57.80273 L 184,76.771484 Z m 61.46484,31.999996 21.42774,0 c 0.554,0 1,0.446 1,1 l 0,19.10743 19.10742,0 c 0.554,0 1,0.446 1,1 l 0,21.96484 c 0,0.554 -0.446,1 -1,1 l -19.10742,0 0,18.92773 c 0,0.554 -0.446,1 -1,1 l -21.42774,0 c -0.554,0 -1,-0.446 -1,-1 l 0,-18.92773 -19.46484,0 c -0.554,0 -1,-0.446 -1,-1 l 0,-21.96484 c 0,-0.554 0.448901,-0.94337 1,-1 l 19.46484,0 0,-19.10743 c 0,-0.554 0.446,-1 1,-1 z m 10.53516,4 -4,4 8,0 z m -24,24 -4,4 4,4 z m 48,0 0,8 4,-4 z m -28,28 4,4 4,-4 z"
       transform="translate(0,825.59055)"
       id="rect4754"
       inkscape:connector-curvature="0"
       sodipodi:nodetypes="cccccccssscsssscsssscsssscsscccccccccccccccc" />
  </g>
</svg>
